<svg width="49" height="48" viewBox="0 0 49 48" fill="none" xmlns="http://www.w3.org/2000/svg">
<rect x="0.96875" width="48" height="48" rx="24" fill="white"/>
<path d="M30.1852 34.8411C28.305 38.552 25.7482 38.9462 24.9942 38.9837V38.9867C24.9942 38.9867 25.0162 38.9885 24.9599 38.9873C24.9037 38.9885 24.9257 38.9867 24.9257 38.9867V38.9837C24.2403 38.9528 22.4607 38.6783 20.7733 36.4946C20.4172 36.0339 20.0641 35.488 19.7364 34.8411C17.5521 30.5304 19.1404 28.3104 19.1404 28.3104L24.9257 28.2965V28.2959L24.9599 28.2965L24.9942 28.2959V28.2965L27.4592 28.3026L30.7892 28.3104C30.7892 28.3104 32.3695 30.5304 30.1852 34.8411Z" fill="url(#paint0_linear_62_195)"/>
<path d="M24.9688 29.1442C21.7247 29.1442 19.0948 28.8111 19.0948 28.4002C19.0948 27.9893 21.7247 27.6562 24.9688 27.6562C28.2129 27.6562 30.8428 27.9893 30.8428 28.4002C30.8428 28.8111 28.2129 29.1442 24.9688 29.1442Z" fill="url(#paint1_linear_62_195)"/>
<path opacity="0.3" d="M30.1854 34.841C28.3052 38.5519 25.7483 38.9461 24.9944 38.9836V38.9866C24.9944 38.9866 25.0164 38.9884 24.9601 38.9872C24.9039 38.9884 24.9259 38.9866 24.9259 38.9866V38.9836C24.2404 38.9528 22.4609 38.6783 20.7735 36.4945C20.7832 34.4837 25.4487 33.1174 26.9063 32.1851C28.7503 31.0062 27.2666 28.4004 27.2666 28.4004C27.338 28.3666 27.4075 28.3339 27.477 28.3025L30.7982 28.3104C30.7982 28.3104 32.3697 30.5303 30.1854 34.841Z" fill="url(#paint2_linear_62_195)"/>
<path d="M16.0317 21.8643C14.3401 21.8643 12.9687 20.1096 12.9687 17.945C12.9687 15.7804 14.3401 14.0256 16.0317 14.0256C17.7234 14.0256 19.0947 15.7804 19.0947 17.945C19.0947 20.1096 17.7234 21.8643 16.0317 21.8643Z" fill="url(#paint3_linear_62_195)"/>
<path d="M35.376 18.8281C35.376 23.704 30.552 27.6561 24.6017 27.6561C23.6876 27.6561 22.8007 27.563 21.9531 27.3871C17.2833 26.4204 13.8275 22.9549 13.8275 18.8281C13.8275 13.9527 18.6515 10 24.6017 10C26.2734 10 27.8562 10.312 29.2685 10.8688C32.8821 12.2938 35.376 15.3227 35.376 18.8281Z" fill="url(#paint4_linear_62_195)"/>
<path d="M17.4069 22.8577L25.7142 23.5828C27.5506 23.743 29.1349 22.3065 29.1991 20.3538L29.2676 18.2702C29.2971 17.374 28.6109 16.6264 27.7465 16.6041L15.904 16.2987C15.2162 16.281 14.6653 16.9061 14.6653 17.6922V19.5211C14.6653 21.2371 15.875 22.724 17.4069 22.8577Z" fill="#F4F7FA"/>
<path d="M17.2078 21.6664L26.0968 22.3207C27.4095 22.4174 28.5311 21.3797 28.5747 19.9932L28.6037 19.073C28.6316 18.1838 27.9529 17.439 27.099 17.4128L16.5022 17.0889C15.8073 17.0677 15.2499 17.6921 15.2489 18.4809L15.2478 19.2976C15.2462 20.5288 16.1147 21.5859 17.2078 21.6664Z" fill="url(#paint5_linear_62_195)"/>
<path d="M22.4189 20.8702C22.3353 20.7327 22.2846 20.5809 22.2874 20.4203C22.2964 19.9 22.8179 19.5032 23.4588 19.5355C24.1071 19.5683 24.6285 20.0266 24.6165 20.5578C24.6128 20.7216 24.554 20.8698 24.4617 20.9989L22.4189 20.8702Z" fill="#D8DEE8"/>
<path d="M16.9492 20.5255C16.8721 20.3949 16.8246 20.2506 16.8254 20.0979C16.8278 19.6028 17.2944 19.2241 17.8732 19.2533C18.4584 19.2828 18.9335 19.7171 18.9287 20.222C18.9272 20.3777 18.8758 20.5188 18.794 20.6417L16.9492 20.5255Z" fill="#D8DEE8"/>
<path opacity="0.3" d="M35.376 18.8282C35.376 23.7041 30.552 27.6563 24.6017 27.6563C23.6876 27.6563 22.8007 27.5632 21.9531 27.3872C21.1151 24.7422 25.8508 21.8414 28.5745 19.9932C31.9111 17.7291 29.2685 10.8689 29.2685 10.8689C32.8821 12.2939 35.376 15.3228 35.376 18.8282Z" fill="url(#paint6_linear_62_195)"/>
<path d="M33.9057 23.4014C32.2141 23.4014 30.8427 21.6467 30.8427 19.4821C30.8427 17.3175 32.2141 15.5627 33.9057 15.5627C35.5974 15.5627 36.9688 17.3175 36.9688 19.4821C36.9688 21.6467 35.5974 23.4014 33.9057 23.4014Z" fill="url(#paint7_linear_62_195)"/>
<defs>
<linearGradient id="paint0_linear_62_195" x1="24.8112" y1="-4.72934" x2="25.101" y2="63.068" gradientUnits="userSpaceOnUse">
<stop stop-color="#007BFF"/>
<stop offset="0.9964" stop-color="#6165D7"/>
</linearGradient>
<linearGradient id="paint1_linear_62_195" x1="24.946" y1="23.063" x2="24.9863" y2="32.4945" gradientUnits="userSpaceOnUse">
<stop stop-color="#444B8C"/>
<stop offset="0.9964" stop-color="#26264F"/>
</linearGradient>
<linearGradient id="paint2_linear_62_195" x1="25.8962" y1="-4.62057" x2="26.1853" y2="63.0008" gradientUnits="userSpaceOnUse">
<stop stop-color="#007BFF"/>
<stop offset="0.9964" stop-color="#6165D7"/>
</linearGradient>
<linearGradient id="paint3_linear_62_195" x1="12.9687" y1="17.945" x2="19.0947" y2="17.945" gradientUnits="userSpaceOnUse">
<stop stop-color="#444B8C"/>
<stop offset="0.9964" stop-color="#26264F"/>
</linearGradient>
<linearGradient id="paint4_linear_62_195" x1="13.8275" y1="18.8281" x2="35.376" y2="18.8281" gradientUnits="userSpaceOnUse">
<stop stop-color="#007BFF"/>
<stop offset="0.9964" stop-color="#007BFF"/>
</linearGradient>
<linearGradient id="paint5_linear_62_195" x1="28.6045" y1="19.7077" x2="15.2478" y2="19.7077" gradientUnits="userSpaceOnUse">
<stop stop-color="#444B8C"/>
<stop offset="0.9964" stop-color="#26264F"/>
</linearGradient>
<linearGradient id="paint6_linear_62_195" x1="28.3435" y1="-40.8533" x2="28.7976" y2="65.3664" gradientUnits="userSpaceOnUse">
<stop stop-color="#007BFF"/>
<stop offset="0.9964" stop-color="#007BFF"/>
</linearGradient>
<linearGradient id="paint7_linear_62_195" x1="30.8427" y1="19.4821" x2="36.9688" y2="19.4821" gradientUnits="userSpaceOnUse">
<stop stop-color="#444B8C"/>
<stop offset="0.9964" stop-color="#26264F"/>
</linearGradient>
</defs>
</svg>
