<svg width="24" height="24" viewBox="0 0 24 24" fill="none" xmlns="http://www.w3.org/2000/svg">
<path d="M20.8998 2H3.09976C2.80802 2 2.52823 2.11589 2.32194 2.32218C2.11565 2.52847 1.99976 2.80826 1.99976 3.1V20.9C1.99976 21.0445 2.02821 21.1875 2.08349 21.321C2.13877 21.4544 2.21979 21.5757 2.32194 21.6778C2.42408 21.78 2.54535 21.861 2.6788 21.9163C2.81226 21.9715 2.9553 22 3.09976 22H12.6798V14.25H10.0798V11.25H12.6798V9C12.6259 8.47176 12.6883 7.93813 12.8625 7.43654C13.0367 6.93495 13.3185 6.47755 13.6882 6.09641C14.0579 5.71528 14.5065 5.41964 15.0026 5.23024C15.4986 5.04083 16.0301 4.96225 16.5598 5C17.3381 4.99521 18.116 5.03528 18.8898 5.12V7.82H17.2998C16.0398 7.82 15.7998 8.42 15.7998 9.29V11.22H18.7998L18.4098 14.22H15.7998V22H20.8998C21.0442 22 21.1872 21.9715 21.3207 21.9163C21.4542 21.861 21.5754 21.78 21.6776 21.6778C21.7797 21.5757 21.8607 21.4544 21.916 21.321C21.9713 21.1875 21.9998 21.0445 21.9998 20.9V3.1C21.9998 2.95555 21.9713 2.81251 21.916 2.67905C21.8607 2.54559 21.7797 2.42433 21.6776 2.32218C21.5754 2.22004 21.4542 2.13901 21.3207 2.08373C21.1872 2.02845 21.0442 2 20.8998 2V2Z" fill="#0056B3"/>
</svg>
