<svg width="24" height="24" viewBox="0 0 24 24" fill="none" xmlns="http://www.w3.org/2000/svg">
<path d="M19.0002 3.99994H5.00024C4.20459 3.99994 3.44153 4.31601 2.87892 4.87862C2.31631 5.44123 2.00024 6.20429 2.00024 6.99994V16.9999C2.00024 17.7956 2.31631 18.5587 2.87892 19.1213C3.44153 19.6839 4.20459 19.9999 5.00024 19.9999H19.0002C19.7959 19.9999 20.559 19.6839 21.1216 19.1213C21.6842 18.5587 22.0002 17.7956 22.0002 16.9999V6.99994C22.0002 6.20429 21.6842 5.44123 21.1216 4.87862C20.559 4.31601 19.7959 3.99994 19.0002 3.99994V3.99994ZM18.5902 5.99994L12.7102 11.8799C12.6173 11.9737 12.5067 12.0481 12.3848 12.0988C12.263 12.1496 12.1323 12.1757 12.0002 12.1757C11.8682 12.1757 11.7375 12.1496 11.6157 12.0988C11.4938 12.0481 11.3832 11.9737 11.2902 11.8799L5.41024 5.99994H18.5902ZM20.0002 16.9999C20.0002 17.2652 19.8949 17.5195 19.7074 17.707C19.5198 17.8946 19.2655 17.9999 19.0002 17.9999H5.00024C4.73503 17.9999 4.48067 17.8946 4.29314 17.707C4.1056 17.5195 4.00024 17.2652 4.00024 16.9999V7.40994L9.88024 13.2899C10.4427 13.8517 11.2052 14.1673 12.0002 14.1673C12.7952 14.1673 13.5577 13.8517 14.1202 13.2899L20.0002 7.40994V16.9999Z" fill="#0056B3"/>
</svg>
