<svg width="24" height="24" viewBox="0 0 24 24" fill="none" xmlns="http://www.w3.org/2000/svg">
<path d="M12 7.00006C11.0111 7.00006 10.0444 7.29331 9.22215 7.84271C8.3999 8.39212 7.75904 9.17301 7.3806 10.0866C7.00216 11.0003 6.90315 12.0056 7.09607 12.9755C7.289 13.9454 7.7652 14.8363 8.46447 15.5356C9.16373 16.2349 10.0546 16.7111 11.0245 16.904C11.9945 17.0969 12.9998 16.9979 13.9134 16.6195C14.827 16.241 15.6079 15.6002 16.1573 14.7779C16.7068 13.9557 17 12.989 17 12.0001C17 10.674 16.4732 9.40221 15.5355 8.46453C14.5979 7.52685 13.3261 7.00006 12 7.00006V7.00006ZM12 15.0001C11.4067 15.0001 10.8266 14.8241 10.3333 14.4945C9.83994 14.1648 9.45542 13.6963 9.22836 13.1481C9.0013 12.5999 8.94189 11.9967 9.05764 11.4148C9.1734 10.8328 9.45912 10.2983 9.87868 9.87874C10.2982 9.45918 10.8328 9.17346 11.4147 9.0577C11.9967 8.94195 12.5999 9.00136 13.1481 9.22842C13.6962 9.45549 14.1648 9.84 14.4944 10.3334C14.8241 10.8267 15 11.4067 15 12.0001C15 12.7957 14.6839 13.5588 14.1213 14.1214C13.5587 14.684 12.7956 15.0001 12 15.0001ZM17 6.00006C16.8022 6.00006 16.6089 6.05871 16.4444 6.16859C16.28 6.27847 16.1518 6.43465 16.0761 6.61738C16.0004 6.8001 15.9806 7.00117 16.0192 7.19515C16.0578 7.38913 16.153 7.56732 16.2929 7.70717C16.4327 7.84702 16.6109 7.94226 16.8049 7.98085C16.9989 8.01943 17.2 7.99963 17.3827 7.92394C17.5654 7.84825 17.7216 7.72008 17.8315 7.55563C17.9414 7.39118 18 7.19784 18 7.00006C18 6.73484 17.8946 6.48049 17.7071 6.29295C17.5196 6.10542 17.2652 6.00006 17 6.00006ZM21.94 8.24006C21.9234 7.38548 21.7611 6.54001 21.46 5.74006C21.1808 5.01213 20.7516 4.35105 20.2003 3.79976C19.649 3.24847 18.9879 2.81928 18.26 2.54006C17.4601 2.23896 16.6146 2.07663 15.76 2.06006C14.79 2.00006 14.47 2.00006 12 2.00006C9.53 2.00006 9.21 2.00006 8.24 2.06006C7.38542 2.07663 6.53995 2.23896 5.74 2.54006C5.01207 2.81928 4.35099 3.24847 3.7997 3.79976C3.2484 4.35105 2.81922 5.01213 2.54 5.74006C2.2389 6.54001 2.07657 7.38548 2.06 8.24006C2 9.22006 2 9.54006 2 12.0001C2 14.4601 2 14.7801 2.06 15.7601C2.07657 16.6146 2.2389 17.4601 2.54 18.2601C2.81922 18.988 3.2484 19.6491 3.7997 20.2004C4.35099 20.7517 5.01207 21.1808 5.74 21.4601C6.53995 21.7612 7.38542 21.9235 8.24 21.9401C9.24 21.9401 9.53 22.0001 12 22.0001C14.47 22.0001 14.79 22.0001 15.76 21.9401C16.6146 21.9235 17.4601 21.7612 18.26 21.4601C18.9879 21.1808 19.649 20.7517 20.2003 20.2004C20.7516 19.6491 21.1808 18.988 21.46 18.2601C21.7611 17.4601 21.9234 16.6146 21.94 15.7601C21.94 14.7601 22 14.4601 22 12.0001C22 9.54006 22 9.22006 21.94 8.24006ZM19.94 15.6701C19.9225 16.3047 19.8043 16.9325 19.59 17.5301C19.4128 18.0024 19.1327 18.4294 18.77 18.7801C18.4214 19.1429 17.9936 19.4201 17.52 19.5901C16.921 19.8132 16.289 19.9348 15.65 19.9501C14.71 19.9501 14.42 20.0001 11.99 20.0001C9.56 20.0001 9.28 20.0001 8.34 20.0001C7.70202 19.9836 7.07075 19.8654 6.47 19.6501C5.99766 19.4728 5.57067 19.1927 5.22 18.8301C4.85715 18.4815 4.57992 18.0537 4.41 17.5801C4.1878 16.9843 4.06615 16.3557 4.05 15.7201C4.05 14.7201 4.05 14.4701 4.05 12.0501C4.05 9.63006 4.05 9.34006 4.05 8.38006C4.06724 7.74127 4.18884 7.1096 4.41 6.51006C4.58256 6.04069 4.85953 5.61668 5.22 5.27006C5.56858 4.90722 5.99641 4.62998 6.47 4.46006C7.06899 4.23696 7.70099 4.11529 8.34 4.10006C9.28 4.00006 9.57 4.00006 12 4.00006C14.43 4.00006 14.72 4.00006 15.66 4.00006C16.3021 4.01639 16.9373 4.13801 17.54 4.36006C18.0094 4.53262 18.4334 4.80959 18.78 5.17006C19.1428 5.51864 19.4201 5.94647 19.59 6.42006C19.8348 7.02862 19.9735 7.67464 20 8.33006C20 9.33006 20.05 9.58006 20.05 12.0001C20.05 14.4201 20 14.7101 20 15.6701H19.94Z" fill="#0056B3"/>
</svg>
