<svg width="24" height="24" viewBox="0 0 24 24" fill="none" xmlns="http://www.w3.org/2000/svg">
<g clip-path="url(#clip0_2_147)">
<path d="M17.4998 8.99903C16.6046 8.99865 15.7232 9.22009 14.9344 9.64356C14.8624 9.45399 14.7345 9.2908 14.5676 9.17567C14.4006 9.06055 14.2026 8.99894 13.9998 8.99903H9.99985C9.86851 8.99896 9.73844 9.02477 9.61708 9.075C9.49572 9.12523 9.38545 9.19888 9.29258 9.29176C9.1997 9.38463 9.12604 9.4949 9.07582 9.61626C9.02559 9.73762 8.99977 9.86769 8.99985 9.99903V21.999C8.99977 22.1304 9.02559 22.2604 9.07581 22.3818C9.12604 22.5032 9.1997 22.6134 9.29257 22.7063C9.38545 22.7992 9.49571 22.8728 9.61707 22.9231C9.73843 22.9733 9.86851 22.9991 9.99985 22.999H13.9998C14.1312 22.9991 14.2613 22.9733 14.3826 22.9231C14.504 22.8728 14.6143 22.7992 14.7071 22.7063C14.8 22.6134 14.8737 22.5032 14.9239 22.3818C14.9741 22.2604 14.9999 22.1304 14.9998 21.999V16.499C14.9998 16.2338 15.1052 15.9795 15.2927 15.7919C15.4803 15.6044 15.7346 15.499 15.9998 15.499C16.2651 15.499 16.5194 15.6044 16.707 15.7919C16.8945 15.9795 16.9998 16.2338 16.9998 16.499V21.999C16.9998 22.1304 17.0256 22.2604 17.0758 22.3818C17.126 22.5032 17.1997 22.6134 17.2926 22.7063C17.3854 22.7992 17.4957 22.8728 17.6171 22.9231C17.7384 22.9733 17.8685 22.9991 17.9998 22.999H21.9998C22.1312 22.9991 22.2613 22.9733 22.3826 22.9231C22.504 22.8728 22.6143 22.7992 22.7071 22.7063C22.8 22.6134 22.8737 22.5032 22.9239 22.3818C22.9741 22.2604 22.9999 22.1304 22.9998 21.999V14.499C22.998 13.0409 22.418 11.643 21.3869 10.6119C20.3559 9.58089 18.958 9.00084 17.4998 8.99903V8.99903ZM20.9998 20.999H18.9998V16.499C18.9998 15.7034 18.6838 14.9403 18.1212 14.3777C17.5586 13.8151 16.7955 13.499 15.9998 13.499C15.2042 13.499 14.4411 13.8151 13.8785 14.3777C13.3159 14.9403 12.9998 15.7034 12.9998 16.499V20.999H10.9998V10.999H12.9998V11.7022C13 11.9094 13.0644 12.1114 13.1843 12.2804C13.3042 12.4494 13.4736 12.577 13.6691 12.6456C13.8646 12.7142 14.0766 12.7204 14.2758 12.6634C14.475 12.6063 14.6515 12.4889 14.7811 12.3272C15.2299 11.7572 15.8454 11.3416 16.5418 11.1384C17.2382 10.9352 17.9807 10.9546 18.6656 11.1937C19.3504 11.4329 19.9435 11.88 20.362 12.4726C20.7805 13.0651 21.0035 13.7736 20.9998 14.499V20.999ZM6.99985 8.99903H2.99985C2.86851 8.99896 2.73844 9.02477 2.61708 9.075C2.49572 9.12523 2.38545 9.19888 2.29257 9.29176C2.1997 9.38463 2.12604 9.4949 2.07582 9.61626C2.02559 9.73762 1.99977 9.86769 1.99985 9.99903V21.999C1.99977 22.1304 2.02559 22.2604 2.07581 22.3818C2.12604 22.5032 2.1997 22.6134 2.29257 22.7063C2.38545 22.7992 2.49572 22.8728 2.61708 22.9231C2.73844 22.9733 2.86851 22.9991 2.99985 22.999H6.99985C7.13119 22.9991 7.26126 22.9733 7.38262 22.9231C7.50398 22.8728 7.61425 22.7992 7.70713 22.7063C7.8 22.6134 7.87366 22.5032 7.92388 22.3818C7.97411 22.2604 7.99993 22.1304 7.99985 21.999V9.99903C7.99992 9.86769 7.97411 9.73762 7.92388 9.61626C7.87365 9.4949 7.8 9.38463 7.70712 9.29176C7.61425 9.19888 7.50398 9.12523 7.38262 9.075C7.26126 9.02477 7.13119 8.99896 6.99985 8.99903V8.99903ZM5.99985 20.999H3.99985V10.999H5.99985V20.999ZM5.0145 1.54203C4.57686 1.51583 4.13847 1.57893 3.72598 1.72748C3.31349 1.87602 2.93552 2.10692 2.61507 2.40612C2.29461 2.70533 2.03836 3.06659 1.86191 3.46793C1.68545 3.86928 1.59247 4.30232 1.58863 4.74072C1.58478 5.17913 1.67015 5.61374 1.83953 6.01811C2.00892 6.42249 2.25879 6.78819 2.57395 7.09297C2.8891 7.39775 3.26296 7.63525 3.67278 7.79101C4.0826 7.94677 4.51982 8.01755 4.95785 7.99903H4.98617C5.42497 8.02509 5.86447 7.96141 6.27782 7.81188C6.69118 7.66235 7.0697 7.43011 7.39027 7.12934C7.71083 6.82857 7.96671 6.46561 8.14226 6.06261C8.3178 5.65961 8.40934 5.22506 8.41127 4.78549C8.41319 4.34593 8.32547 3.91058 8.15347 3.50606C7.98146 3.10154 7.72878 2.73634 7.41087 2.43278C7.09295 2.12921 6.71648 1.89366 6.30445 1.7405C5.89243 1.58735 5.4535 1.51982 5.01449 1.54203H5.0145ZM4.98618 5.99903H4.95785C4.78492 6.02003 4.60949 6.00381 4.44334 5.95146C4.27719 5.89911 4.12415 5.81184 3.99449 5.6955C3.86483 5.57915 3.76155 5.43643 3.69156 5.27691C3.62158 5.11738 3.58651 4.94473 3.58872 4.77054C3.58872 4.02444 4.14829 3.54202 5.0145 3.54202C5.1892 3.51873 5.36686 3.53315 5.53551 3.58431C5.70417 3.63546 5.85991 3.72216 5.99223 3.83857C6.12456 3.95499 6.2304 4.0984 6.30264 4.25916C6.37487 4.41992 6.41181 4.5943 6.41098 4.77054C6.41098 5.51663 5.85141 5.99903 4.98618 5.99903Z" fill="#0056B3"/>
<path d="M17.4998 8.99903C16.6046 8.99865 15.7232 9.22009 14.9344 9.64356C14.8624 9.45399 14.7345 9.2908 14.5676 9.17567C14.4006 9.06055 14.2026 8.99894 13.9998 8.99903H9.99985C9.86851 8.99896 9.73844 9.02477 9.61708 9.075C9.49572 9.12523 9.38545 9.19888 9.29258 9.29176C9.1997 9.38463 9.12604 9.4949 9.07582 9.61626C9.02559 9.73762 8.99977 9.86769 8.99985 9.99903V21.999C8.99977 22.1304 9.02559 22.2604 9.07581 22.3818C9.12604 22.5032 9.1997 22.6134 9.29257 22.7063C9.38545 22.7992 9.49571 22.8728 9.61707 22.9231C9.73843 22.9733 9.86851 22.9991 9.99985 22.999H13.9998C14.1312 22.9991 14.2613 22.9733 14.3826 22.9231C14.504 22.8728 14.6143 22.7992 14.7071 22.7063C14.8 22.6134 14.8737 22.5032 14.9239 22.3818C14.9741 22.2604 14.9999 22.1304 14.9998 21.999V16.499C14.9998 16.2338 15.1052 15.9795 15.2927 15.7919C15.4803 15.6044 15.7346 15.499 15.9998 15.499C16.2651 15.499 16.5194 15.6044 16.707 15.7919C16.8945 15.9795 16.9998 16.2338 16.9998 16.499V21.999C16.9998 22.1304 17.0256 22.2604 17.0758 22.3818C17.126 22.5032 17.1997 22.6134 17.2926 22.7063C17.3854 22.7992 17.4957 22.8728 17.6171 22.9231C17.7384 22.9733 17.8685 22.9991 17.9998 22.999H21.9998C22.1312 22.9991 22.2613 22.9733 22.3826 22.9231C22.504 22.8728 22.6143 22.7992 22.7071 22.7063C22.8 22.6134 22.8737 22.5032 22.9239 22.3818C22.9741 22.2604 22.9999 22.1304 22.9998 21.999V14.499C22.998 13.0409 22.418 11.643 21.3869 10.6119C20.3559 9.58089 18.958 9.00084 17.4998 8.99903V8.99903ZM20.9998 20.999H18.9998V16.499C18.9998 15.7034 18.6838 14.9403 18.1212 14.3777C17.5586 13.8151 16.7955 13.499 15.9998 13.499C15.2042 13.499 14.4411 13.8151 13.8785 14.3777C13.3159 14.9403 12.9998 15.7034 12.9998 16.499V20.999H10.9998V10.999H12.9998V11.7022C13 11.9094 13.0644 12.1114 13.1843 12.2804C13.3042 12.4494 13.4736 12.577 13.6691 12.6456C13.8646 12.7142 14.0766 12.7204 14.2758 12.6634C14.475 12.6063 14.6515 12.4889 14.7811 12.3272C15.2299 11.7572 15.8454 11.3416 16.5418 11.1384C17.2382 10.9352 17.9807 10.9546 18.6656 11.1937C19.3504 11.4329 19.9435 11.88 20.362 12.4726C20.7805 13.0651 21.0035 13.7736 20.9998 14.499V20.999ZM6.99985 8.99903H2.99985C2.86851 8.99896 2.73844 9.02477 2.61708 9.075C2.49572 9.12523 2.38545 9.19888 2.29257 9.29176C2.1997 9.38463 2.12604 9.4949 2.07582 9.61626C2.02559 9.73762 1.99977 9.86769 1.99985 9.99903V21.999C1.99977 22.1304 2.02559 22.2604 2.07581 22.3818C2.12604 22.5032 2.1997 22.6134 2.29257 22.7063C2.38545 22.7992 2.49572 22.8728 2.61708 22.9231C2.73844 22.9733 2.86851 22.9991 2.99985 22.999H6.99985C7.13119 22.9991 7.26126 22.9733 7.38262 22.9231C7.50398 22.8728 7.61425 22.7992 7.70713 22.7063C7.8 22.6134 7.87366 22.5032 7.92388 22.3818C7.97411 22.2604 7.99993 22.1304 7.99985 21.999V9.99903C7.99992 9.86769 7.97411 9.73762 7.92388 9.61626C7.87365 9.4949 7.8 9.38463 7.70712 9.29176C7.61425 9.19888 7.50398 9.12523 7.38262 9.075C7.26126 9.02477 7.13119 8.99896 6.99985 8.99903V8.99903ZM5.99985 20.999H3.99985V10.999H5.99985V20.999ZM5.0145 1.54203C4.57686 1.51583 4.13847 1.57893 3.72598 1.72748C3.31349 1.87602 2.93552 2.10692 2.61507 2.40612C2.29461 2.70533 2.03836 3.06659 1.86191 3.46793C1.68545 3.86928 1.59247 4.30232 1.58863 4.74072C1.58478 5.17913 1.67015 5.61374 1.83953 6.01811C2.00892 6.42249 2.25879 6.78819 2.57395 7.09297C2.8891 7.39775 3.26296 7.63525 3.67278 7.79101C4.0826 7.94677 4.51982 8.01755 4.95785 7.99903H4.98617C5.42497 8.02509 5.86447 7.96141 6.27782 7.81188C6.69118 7.66235 7.0697 7.43011 7.39027 7.12934C7.71083 6.82857 7.96671 6.46561 8.14226 6.06261C8.3178 5.65961 8.40934 5.22506 8.41127 4.78549C8.41319 4.34593 8.32547 3.91058 8.15347 3.50606C7.98146 3.10154 7.72878 2.73634 7.41087 2.43278C7.09295 2.12921 6.71648 1.89366 6.30445 1.7405C5.89243 1.58735 5.4535 1.51982 5.01449 1.54203H5.0145ZM4.98618 5.99903H4.95785C4.78492 6.02003 4.60949 6.00381 4.44334 5.95146C4.27719 5.89911 4.12415 5.81184 3.99449 5.6955C3.86483 5.57915 3.76155 5.43643 3.69156 5.27691C3.62158 5.11738 3.58651 4.94473 3.58872 4.77054C3.58872 4.02444 4.14829 3.54202 5.0145 3.54202C5.1892 3.51873 5.36686 3.53315 5.53551 3.58431C5.70417 3.63546 5.85991 3.72216 5.99223 3.83857C6.12456 3.95499 6.2304 4.0984 6.30264 4.25916C6.37487 4.41992 6.41181 4.5943 6.41098 4.77054C6.41098 5.51663 5.85141 5.99903 4.98618 5.99903Z" fill="#0056B3"/>
</g>
<defs>
<clipPath id="clip0_2_147">
<rect width="24" height="24" fill="white"/>
</clipPath>
</defs>
</svg>
