<svg width="402" height="476" viewBox="0 0 402 476" fill="none" xmlns="http://www.w3.org/2000/svg">
<path d="M122.37 421.371C174.203 421.371 253.322 398.335 319.474 363.635C352.554 346.283 382.415 326.003 404.011 304.206C425.583 282.434 438.952 259.105 438.975 235.639C448.057 207.464 442.692 179.118 427.95 152.471C413.201 125.812 389.059 100.836 360.565 79.3867C303.588 36.4955 229.103 7.6286 177.246 7.6286C125.295 7.6286 90.1973 41.3201 68.1074 86.6114C46.0191 131.899 36.8948 188.854 36.8948 235.58C36.8948 247.247 36.6074 258.893 36.3063 270.347C36.2854 271.143 36.2644 271.938 36.2435 272.732C35.9629 283.362 35.6869 293.815 35.6367 303.943C35.5287 325.709 36.4624 346.006 40.6422 363.393C44.8232 380.785 52.2592 395.295 65.1764 405.451C78.0925 415.607 96.4405 421.371 122.37 421.371Z" fill="url(#paint0_linear_3_620)" fill-opacity="0.2" stroke="url(#paint1_linear_3_620)" stroke-width="0.742806"/>
<path d="M363.533 228.744C346.22 262.916 322.676 266.545 315.733 266.89V266.918C315.733 266.918 315.935 266.935 315.417 266.924C314.9 266.935 315.102 266.918 315.102 266.918V266.89C308.79 266.607 292.404 264.079 276.866 243.97C273.586 239.728 270.335 234.701 267.318 228.744C247.204 189.05 261.829 168.608 261.829 168.608L315.102 168.48V168.474L315.417 168.48L315.733 168.474V168.48L338.431 168.535L369.095 168.608C369.095 168.608 383.647 189.05 363.533 228.744Z" fill="url(#paint2_linear_3_620)"/>
<path d="M315.5 176.286C285.627 176.286 261.411 173.219 261.411 169.436C261.411 165.652 285.627 162.585 315.5 162.585C345.373 162.585 369.589 165.652 369.589 169.436C369.589 173.219 345.373 176.286 315.5 176.286Z" fill="url(#paint3_linear_3_620)"/>
<path opacity="0.3" d="M363.533 228.744C346.22 262.916 322.676 266.545 315.733 266.891V266.918C315.733 266.918 315.935 266.935 315.417 266.924C314.9 266.935 315.102 266.918 315.102 266.918V266.891C308.79 266.607 292.404 264.079 276.866 243.97C276.955 225.454 319.916 212.872 333.339 204.288C350.319 193.432 336.657 169.437 336.657 169.437C337.314 169.125 337.954 168.825 338.594 168.535L369.177 168.608C369.177 168.608 383.647 189.05 363.533 228.744Z" fill="url(#paint4_linear_3_620)"/>
<path d="M233.205 109.252C217.628 109.252 205 93.0933 205 73.1611C205 53.2288 217.628 37.0706 233.205 37.0706C248.783 37.0706 261.41 53.2288 261.41 73.1611C261.41 93.0933 248.783 109.252 233.205 109.252Z" fill="url(#paint5_linear_3_620)"/>
<path d="M411.334 81.292C411.334 126.191 366.914 162.584 312.121 162.584C303.704 162.584 295.537 161.726 287.732 160.106C244.731 151.204 212.909 119.294 212.909 81.292C212.909 36.3983 257.329 0.00012207 312.121 0.00012207C327.515 0.00012207 342.09 2.87278 355.095 8.00013C388.37 21.1219 411.334 49.0134 411.334 81.292Z" fill="url(#paint6_linear_3_620)"/>
<path d="M245.869 118.4L322.365 125.076C339.276 126.552 353.864 113.323 354.455 95.3425L355.086 76.1564C355.358 67.9032 349.039 61.0196 341.079 60.8142L232.029 58.0019C225.696 57.8387 220.623 63.5946 220.623 70.8333V87.6749C220.623 103.476 231.763 117.169 245.869 118.4Z" fill="#F4F7FA"/>
<path d="M244.033 107.428L325.885 113.454C337.973 114.343 348.301 104.788 348.703 92.021L348.969 83.5473C349.227 75.3595 342.977 68.5006 335.114 68.2601L237.535 65.2771C231.136 65.0815 226.003 70.8316 225.994 78.0946L225.984 85.615C225.969 96.9525 233.966 106.687 244.033 107.428Z" fill="url(#paint7_linear_3_620)"/>
<path d="M292.02 100.096C291.25 98.8293 290.784 97.431 290.809 95.9528C290.892 91.161 295.694 87.5071 301.595 87.8052C307.565 88.1066 312.366 92.3273 312.256 97.2183C312.222 98.727 311.681 100.092 310.831 101.28L292.02 100.096Z" fill="#D8DEE8"/>
<path d="M241.653 96.9231C240.944 95.7205 240.506 94.3915 240.513 92.985C240.535 88.426 244.832 84.9389 250.162 85.2079C255.55 85.4799 259.926 89.4792 259.881 94.1278C259.867 95.5618 259.394 96.8608 258.641 97.993L241.653 96.9231Z" fill="#D8DEE8"/>
<path opacity="0.3" d="M411.334 81.292C411.334 126.191 366.914 162.584 312.121 162.584C303.704 162.584 295.537 161.726 287.732 160.106C280.016 135.75 323.623 109.039 348.704 92.0199C379.429 71.171 355.095 8.00012 355.095 8.00012C388.37 21.1219 411.334 49.0134 411.334 81.292Z" fill="url(#paint8_linear_3_620)"/>
<path d="M397.795 123.406C382.217 123.406 369.59 107.247 369.59 87.3151C369.59 67.3829 382.217 51.2246 397.795 51.2246C413.372 51.2246 426 67.3829 426 87.3151C426 107.247 413.372 123.406 397.795 123.406Z" fill="url(#paint9_linear_3_620)"/>
<path d="M62.4666 437.744C79.7803 471.916 103.324 475.545 110.267 475.89V475.918C110.267 475.918 110.065 475.935 110.583 475.924C111.1 475.935 110.898 475.918 110.898 475.918V475.89C117.21 475.607 133.596 473.079 149.134 452.97C152.414 448.728 155.665 443.701 158.682 437.744C178.796 398.05 164.171 377.608 164.171 377.608L110.898 377.48V377.474L110.583 377.48L110.267 377.474V377.48L87.5687 377.535L56.9047 377.608C56.9047 377.608 42.3526 398.05 62.4666 437.744Z" fill="url(#paint10_linear_3_620)"/>
<path d="M110.5 385.286C140.373 385.286 164.589 382.219 164.589 378.436C164.589 374.652 140.373 371.585 110.5 371.585C80.6273 371.585 56.4106 374.652 56.4106 378.436C56.4106 382.219 80.6273 385.286 110.5 385.286Z" fill="url(#paint11_linear_3_620)"/>
<path opacity="0.3" d="M62.4666 437.744C79.7803 471.916 103.324 475.545 110.267 475.891V475.918C110.267 475.918 110.065 475.935 110.583 475.924C111.1 475.935 110.898 475.918 110.898 475.918V475.891C117.21 475.607 133.596 473.079 149.134 452.97C149.045 434.454 106.084 421.872 92.6612 413.288C75.6815 402.432 89.3434 378.437 89.3434 378.437C88.6863 378.125 88.0462 377.825 87.4062 377.535L56.8234 377.608C56.8234 377.608 42.3526 398.05 62.4666 437.744Z" fill="url(#paint12_linear_3_620)"/>
<path d="M192.795 318.252C208.372 318.252 221 302.093 221 282.161C221 262.229 208.372 246.071 192.795 246.071C177.217 246.071 164.59 262.229 164.59 282.161C164.59 302.093 177.217 318.252 192.795 318.252Z" fill="url(#paint13_linear_3_620)"/>
<path d="M14.6657 290.292C14.6657 335.191 59.0863 371.584 113.879 371.584C122.296 371.584 130.463 370.726 138.268 369.106C181.269 360.204 213.091 328.294 213.091 290.292C213.091 245.398 168.671 209 113.879 209C98.485 209 83.9105 211.873 70.9053 217C37.6303 230.122 14.6657 258.013 14.6657 290.292Z" fill="url(#paint14_linear_3_620)"/>
<path d="M180.131 327.4L103.635 334.076C86.7245 335.552 72.1363 322.323 71.5448 304.342L70.9136 285.156C70.6422 276.903 76.9612 270.02 84.921 269.814L193.971 267.002C200.304 266.839 205.377 272.595 205.377 279.833V296.675C205.377 312.476 194.237 326.169 180.131 327.4Z" fill="#F4F7FA"/>
<path d="M181.967 316.428L100.115 322.454C88.0267 323.343 77.6986 313.788 77.2973 301.021L77.0309 292.547C76.7735 284.359 83.0235 277.501 90.8858 277.26L188.465 274.277C194.864 274.081 199.997 279.832 200.006 287.095L200.016 294.615C200.031 305.953 192.034 315.687 181.967 316.428Z" fill="url(#paint15_linear_3_620)"/>
<path d="M133.98 309.096C134.75 307.829 135.216 306.431 135.191 304.953C135.108 300.161 130.306 296.507 124.405 296.805C118.435 297.107 113.634 301.327 113.744 306.218C113.778 307.727 114.319 309.092 115.169 310.28L133.98 309.096Z" fill="#D8DEE8"/>
<path d="M184.347 305.923C185.056 304.721 185.494 303.391 185.487 301.985C185.465 297.426 181.168 293.939 175.838 294.208C170.45 294.48 166.074 298.479 166.119 303.128C166.133 304.562 166.606 305.861 167.359 306.993L184.347 305.923Z" fill="#D8DEE8"/>
<path opacity="0.3" d="M14.6657 290.292C14.6657 335.191 59.0863 371.584 113.879 371.584C122.296 371.584 130.463 370.726 138.268 369.106C145.984 344.75 102.377 318.039 77.2964 301.02C46.5713 280.171 70.9053 217 70.9053 217C37.6303 230.122 14.6657 258.013 14.6657 290.292Z" fill="url(#paint16_linear_3_620)"/>
<path d="M28.2052 332.406C43.7825 332.406 56.4104 316.247 56.4104 296.315C56.4104 276.383 43.7825 260.225 28.2052 260.225C12.6279 260.225 0 276.383 0 296.315C0 316.247 12.6279 332.406 28.2052 332.406Z" fill="url(#paint17_linear_3_620)"/>
<defs>
<linearGradient id="paint0_linear_3_620" x1="239.529" y1="8" x2="239.529" y2="421" gradientUnits="userSpaceOnUse">
<stop stop-color="#007BFF"/>
<stop offset="1" stop-color="#5BC0DE"/>
</linearGradient>
<linearGradient id="paint1_linear_3_620" x1="239.529" y1="8" x2="239.529" y2="421" gradientUnits="userSpaceOnUse">
<stop stop-color="#FB6FBB"/>
<stop offset="0.326177" stop-color="#444B8C"/>
<stop offset="1" stop-color="#9571F6"/>
</linearGradient>
<linearGradient id="paint2_linear_3_620" x1="314.048" y1="-135.633" x2="316.716" y2="488.667" gradientUnits="userSpaceOnUse">
<stop stop-color="#007BFF"/>
<stop offset="0.9964" stop-color="#6165D7"/>
</linearGradient>
<linearGradient id="paint3_linear_3_620" x1="315.29" y1="120.289" x2="315.661" y2="207.137" gradientUnits="userSpaceOnUse">
<stop stop-color="#444B8C"/>
<stop offset="0.9964" stop-color="#26264F"/>
</linearGradient>
<linearGradient id="paint4_linear_3_620" x1="324.037" y1="-134.631" x2="326.699" y2="488.049" gradientUnits="userSpaceOnUse">
<stop stop-color="#007BFF"/>
<stop offset="0.9964" stop-color="#6165D7"/>
</linearGradient>
<linearGradient id="paint5_linear_3_620" x1="205" y1="73.1611" x2="261.411" y2="73.1611" gradientUnits="userSpaceOnUse">
<stop stop-color="#444B8C"/>
<stop offset="0.9964" stop-color="#26264F"/>
</linearGradient>
<linearGradient id="paint6_linear_3_620" x1="212.909" y1="81.2919" x2="411.334" y2="81.2919" gradientUnits="userSpaceOnUse">
<stop stop-color="#007BFF"/>
<stop offset="0.9964" stop-color="#007BFF"/>
</linearGradient>
<linearGradient id="paint7_linear_3_620" x1="348.977" y1="89.3915" x2="225.984" y2="89.3915" gradientUnits="userSpaceOnUse">
<stop stop-color="#444B8C"/>
<stop offset="0.9964" stop-color="#26264F"/>
</linearGradient>
<linearGradient id="paint8_linear_3_620" x1="346.577" y1="-468.275" x2="350.758" y2="509.831" gradientUnits="userSpaceOnUse">
<stop stop-color="#007BFF"/>
<stop offset="0.9964" stop-color="#007BFF"/>
</linearGradient>
<linearGradient id="paint9_linear_3_620" x1="369.589" y1="87.3151" x2="426" y2="87.3151" gradientUnits="userSpaceOnUse">
<stop stop-color="#444B8C"/>
<stop offset="0.9964" stop-color="#26264F"/>
</linearGradient>
<linearGradient id="paint10_linear_3_620" x1="111.952" y1="73.3665" x2="109.284" y2="697.667" gradientUnits="userSpaceOnUse">
<stop stop-color="#007BFF"/>
<stop offset="0.9964" stop-color="#6165D7"/>
</linearGradient>
<linearGradient id="paint11_linear_3_620" x1="110.71" y1="329.289" x2="110.339" y2="416.137" gradientUnits="userSpaceOnUse">
<stop stop-color="#444B8C"/>
<stop offset="0.9964" stop-color="#26264F"/>
</linearGradient>
<linearGradient id="paint12_linear_3_620" x1="101.963" y1="74.3687" x2="99.301" y2="697.049" gradientUnits="userSpaceOnUse">
<stop stop-color="#007BFF"/>
<stop offset="0.9964" stop-color="#6165D7"/>
</linearGradient>
<linearGradient id="paint13_linear_3_620" x1="221" y1="282.161" x2="164.589" y2="282.161" gradientUnits="userSpaceOnUse">
<stop stop-color="#444B8C"/>
<stop offset="0.9964" stop-color="#26264F"/>
</linearGradient>
<linearGradient id="paint14_linear_3_620" x1="213.091" y1="290.292" x2="14.6658" y2="290.292" gradientUnits="userSpaceOnUse">
<stop stop-color="#007BFF"/>
<stop offset="0.9964" stop-color="#007BFF"/>
</linearGradient>
<linearGradient id="paint15_linear_3_620" x1="77.0231" y1="298.392" x2="200.016" y2="298.392" gradientUnits="userSpaceOnUse">
<stop stop-color="#444B8C"/>
<stop offset="0.9964" stop-color="#26264F"/>
</linearGradient>
<linearGradient id="paint16_linear_3_620" x1="79.4228" y1="-259.275" x2="75.242" y2="718.831" gradientUnits="userSpaceOnUse">
<stop stop-color="#007BFF"/>
<stop offset="0.9964" stop-color="#007BFF"/>
</linearGradient>
<linearGradient id="paint17_linear_3_620" x1="56.4105" y1="296.315" x2="-3.36233e-05" y2="296.315" gradientUnits="userSpaceOnUse">
<stop stop-color="#444B8C"/>
<stop offset="0.9964" stop-color="#26264F"/>
</linearGradient>
</defs>
</svg>
